<?xml version="1.0" standalone="no"?>
<!DOCTYPE svg PUBLIC "-//W3C//DTD SVG 20010904//EN"
 "http://www.w3.org/TR/2001/REC-SVG-20010904/DTD/svg10.dtd">
<svg version="1.0" xmlns="http://www.w3.org/2000/svg"
 width="512.000000pt" height="512.000000pt" viewBox="0 0 512.000000 512.000000"
 preserveAspectRatio="xMidYMid meet">

<g transform="translate(0.000000,512.000000) scale(0.100000,-0.100000)"
fill="context-fill" stroke="none">
<path d="M2330 5109 c-138 -13 -282 -39 -330 -60 -100 -44 -160 -137 -160
-249 0 -111 59 -204 160 -249 55 -25 122 -26 245 -5 131 22 381 29 516 15 792
-85 1455 -614 1704 -1362 141 -426 141 -852 0 -1277 -273 -821 -1042 -1373
-1912 -1372 -577 0 -1149 265 -1521 703 -519 610 -628 1465 -280 2185 27 56
53 102 58 102 5 0 89 -48 187 -107 101 -61 200 -113 228 -120 87 -23 175 0
246 64 54 49 81 104 86 178 4 52 -10 118 -101 485 -116 466 -133 514 -204 564
-110 78 -128 77 -635 -49 -232 -58 -435 -111 -452 -117 -42 -17 -113 -85 -137
-131 -45 -90 -30 -216 37 -294 21 -25 82 -70 148 -109 62 -37 114 -69 116 -71
2 -1 -30 -74 -72 -160 -159 -332 -239 -652 -254 -1018 -31 -798 327 -1585 947
-2084 707 -569 1654 -724 2500 -409 1325 493 2000 1965 1508 3288 -191 512
-527 937 -988 1245 -132 89 -407 226 -559 279 -342 120 -730 168 -1081 135z"/>
<path d="M2445 4086 c-60 -28 -116 -87 -139 -147 -15 -40 -16 -117 -14 -844 3
-893 -2 -832 74 -908 35 -34 939 -584 1012 -614 60 -25 152 -20 216 11 98 48
149 131 150 241 1 81 -22 142 -73 192 -18 18 -214 142 -437 275 l-404 243 0
685 0 685 -24 50 c-64 135 -226 194 -361 131z"/>
</g>
</svg>
